Coordinates
version=1
nRows=8
nColumns=40
inDegrees=yes

Units are S.I. units (second, meters, Newtons, ...)
Angles are in degrees.

endheader
time	pelvis_tilt	pelvis_list	pelvis_rotation	pelvis_tx	pelvis_ty	pelvis_tz	hip_flexion_r	hip_adduction_r	hip_rotation_r	knee_angle_r	knee_angle_r_beta	ankle_angle_r	subtalar_angle_r	mtp_angle_r	hip_flexion_l	hip_adduction_l	hip_rotation_l	knee_angle_l	knee_angle_l_beta	ankle_angle_l	subtalar_angle_l	mtp_angle_l	lumbar_extension	lumbar_bending	lumbar_rotation	arm_flex_r	arm_add_r	arm_rot_r	elbow_flex_r	pro_sup_r	wrist_flex_r	wrist_dev_r	arm_flex_l	arm_add_l	arm_rot_l	elbow_flex_l	pro_sup_l	wrist_flex_l	wrist_dev_l
      1.53000000	      1.78735584	      2.15963569	     -6.89267490	      0.58865321	      0.88388061	      1.46433350	      2.07656210	     -6.10237016	     -4.71252628	    -56.29576494	     -0.98254645	    -17.50145078	     -4.00615476	      0.12246420	     18.83032118	     -5.44729692	     11.77165998	    -29.26013375	     -0.51068567	      8.63208933	      6.91056759	     -2.58477354	     -4.38672559	     -2.16467837	      5.06658517	      8.56333154	    -12.63203808	     10.64656184	     22.37617379	     89.95437384	      0.00000000	      0.00000000	     -5.65522737	      8.39235893	    -22.06578560	      8.84734287	     89.95437384	      0.00000000	      0.00000000
      1.54000000	      1.28622175	      2.26151219	     -7.09254751	      0.60060185	      0.88349773	      1.46438069	      4.92334608	     -5.94330257	     -3.94429285	    -59.24320216	     -1.03398894	    -16.37868945	     -7.39173326	      0.54612613	     18.55074394	     -5.32753461	     12.70144950	    -29.41354747	     -0.51336325	      9.03407268	      5.79336019	     -2.94345646	     -3.89660306	     -2.18079297	      5.03848905	      8.12595040	    -12.65241601	     11.84539305	     21.93828622	     89.95437384	      0.00000000	      0.00000000	     -4.94326239	      8.68350319	    -23.10346441	      9.74349408	     89.95437384	      0.00000000	      0.00000000
      1.55000000	      1.25814270	      2.32923265	     -7.12573516	      0.61312517	      0.88416287	      1.46426397	      7.01131632	     -5.96631718	     -3.68329381	    -61.52058095	     -1.07373670	    -14.63287984	     -9.64701299	      2.76363762	     17.48397203	     -5.47267141	     12.93545653	    -29.12130847	     -0.50826272	      9.61353959	      4.98552624	     -4.28077083	     -3.87476737	     -2.21154644	      4.86078811	      7.63401987	    -12.57031378	     12.62767334	     21.43965716	     89.95437384	      0.00000000	      0.00000000	     -4.13843178	      9.08766617	    -24.97251035	     10.65439265	     89.95437384	      0.00000000	      0.00000000
      1.56000000	      1.46736807	      2.40931446	     -7.00680899	      0.62581764	      0.88543543	      1.46376817	      8.68160752	     -6.06442987	     -3.54985353	    -63.22521095	     -1.10348810	    -13.09925925	    -10.93868351	      2.75699128	     16.08394436	     -5.84377795	     12.63436143	    -28.68123541	     -0.50058199	     10.35336982	      4.54533083	     -4.41664837	     -4.11689297	     -2.25541316	      4.49347001	      7.24266925	    -12.39076768	     13.10411633	     20.71782600	     89.95437384	      0.00000000	      0.00000000	     -3.11556419	      9.17444033	    -24.81887588	     11.10601961	     89.95437384	      0.00000000	      0.00000000
      1.57000000	      1.62790069	      2.37718297	     -6.82641955	      0.63869390	      0.88686249	      1.46325193	     10.31967594	     -5.95651687	     -3.42656487	    -64.50934512	     -1.12590047	    -11.52482581	    -12.13244197	      2.77220086	     14.64959979	     -6.11879768	     12.23687062	    -28.12126467	     -0.49080866	     10.86248104	      4.30795461	     -4.47505290	     -4.28801469	     -2.14562688	      4.07786951	      6.69588691	    -12.26640742	     13.62187868	     20.17589016	     89.95437384	      0.00000000	      0.00000000	     -2.13169767	      9.20942027	    -24.68248514	     11.63185910	     89.95437384	      0.00000000	      0.00000000
      1.58000000	      1.77287861	      2.30471908	     -6.58406985	      0.65160483	      0.88838873	      1.46265578	     11.83172354	     -5.72078413	     -3.27383167	    -65.30978648	     -1.13987081	     -9.71114369	    -13.27827256	      2.84515082	     13.18957308	     -6.38900700	     11.63588007	    -27.48945839	     -0.47978156	     11.42211109	      4.18536458	     -4.51963108	     -4.40294026	     -1.98246034	      3.59982064	      6.11330425	    -12.18022498	     14.31710538	     19.64320411	     89.95437384	      0.00000000	      0.00000000	     -1.15807186	      9.28042886	    -24.47624779	     12.21114281	     89.95437384	      0.00000000	      0.00000000
      1.59000000	      1.87331974	      2.01553124	     -6.28898025	      0.66433201	      0.89000798	      1.46199911	     13.36550924	     -5.27794262	     -3.29374881	    -65.76234800	     -1.14776950	     -8.44665758	    -13.77525620	      2.86003176	     11.74303957	     -6.38967753	     11.14332044	    -26.82007660	     -0.46809864	     11.75399685	      4.17756030	     -4.49084300	     -4.51806765	     -1.55734910	      3.11236698	      5.47832200	    -12.13246528	     14.77636432	     19.22700611	     89.95437384	      0.00000000	      0.00000000	     -0.11878404	      9.25686615	    -24.25528505	     12.81718794	     89.95437384	      0.00000000	      0.00000000
      1.60000000	      2.52312344	      1.79659983	     -5.84935989	      0.67759315	      0.89267297	      1.46089564	     13.88969986	     -4.95355070	     -3.38305946	    -65.42651646	     -1.14190813	     -6.25479244	    -14.62964552	      3.99561796	      9.35227712	     -6.84864372	      9.52983001	    -25.53940007	     -0.44574662	     12.24459208	      5.54041695	     -4.27075385	     -5.22742327	     -1.25243462	      2.34387551	      4.88146684	    -12.34862969	     16.93659328	     19.00066646	     89.95437384	      0.00000000	      0.00000000	      0.86244097	      9.13248591	    -22.47194808	     13.54785016	     89.95437384	      0.00000000	      0.00000000
